<svg width="64" height="66" viewBox="0 0 64 66" fill="none" xmlns="http://www.w3.org/2000/svg">
<path d="M49.7347 43.3674C46.8086 48.3349 41.7551 52.2964 36.1723 54.2689C30.5909 56.2409 24.5957 56.1894 19.7238 53.3196C14.8519 50.4498 11.9004 45.2311 10.9194 39.3935C9.93806 33.5544 10.953 27.2139 13.8791 22.2465C16.8052 17.279 21.8587 13.3175 27.4415 11.345C33.0229 9.37298 39.0181 9.42444 43.89 12.2943C48.7619 15.1641 51.7134 20.3827 52.6945 26.2204C53.6758 32.0595 52.6608 38.4 49.7347 43.3674Z" stroke="#331B3B" stroke-opacity="0.64" stroke-width="2"/>
<g clip-path="url(#clip0_410_14)">
<path fill-rule="evenodd" clip-rule="evenodd" d="M33.6282 42.8071V33.8071H36.3606L36.8069 29.8071H33.6282V27.8589C33.6282 26.8289 33.6545 25.8071 35.0938 25.8071H36.5516V22.9473C36.5516 22.9043 35.2994 22.8071 34.0326 22.8071C31.3869 22.8071 29.7303 24.4643 29.7303 27.5073V29.8071H26.8069V33.8071H29.7303V42.8071H33.6282Z" fill="#331B3B"/>
</g>
<defs>
<clipPath id="clip0_410_14">
<rect width="10" height="20" fill="white" transform="translate(26.8069 22.8071)"/>
</clipPath>
</defs>
</svg>
