<svg width="25" height="25" viewBox="0 0 25 25" fill="none" xmlns="http://www.w3.org/2000/svg">
<path fill-rule="evenodd" clip-rule="evenodd" d="M0 12.5C0 5.59644 5.59644 0 12.5 0C19.4036 0 25 5.59644 25 12.5C25 19.4036 19.4036 25 12.5 25C5.59644 25 0 19.4036 0 12.5ZM13.1613 4.04719C15.4152 4.21008 17.1323 4.8745 18.3125 6.04045C19.6844 7.38068 20.3704 9.30821 20.3704 11.823C20.3704 13.4644 20.0313 14.9026 19.3533 16.1374C19.1028 16.5986 18.8085 17.0211 18.4701 17.4048L18.7524 18.115C18.9823 18.6835 19.2429 19.065 19.5341 19.2595C19.8253 19.439 20.0935 19.5362 20.3388 19.5512V20C20.0322 19.9701 19.6567 19.9551 19.2122 19.9551C18.7677 19.9402 18.3232 19.9327 17.8787 19.9327C17.281 19.9327 16.7215 19.9402 16.2004 19.9551C15.6793 19.9551 15.2578 19.9701 14.9359 20V19.5908C14.0011 19.8636 12.9585 20 11.8079 20C11.5714 20 11.256 19.9924 10.8618 19.9774C10.5585 19.9658 10.2458 19.9587 9.92385 19.956V20C9.49468 19.9701 9.04253 19.9551 8.56738 19.9551C8.2958 19.9463 8.03492 19.9401 7.78473 19.9364C7.47541 19.9401 7.16864 19.9463 6.8644 19.9548C6.32827 19.9548 5.89463 19.9699 5.56348 20V19.999C5.56084 19.9993 5.5582 19.9997 5.55556 20V19.5512C5.5582 19.5505 5.56084 19.5499 5.56348 19.5492V19.5482C5.56524 19.5481 5.56699 19.548 5.56874 19.5479C5.87111 19.4714 6.18093 19.3005 6.49819 19.0351C6.82006 18.7508 7.11128 18.2721 7.37185 17.5989L7.47939 17.3282V6.40186C7.47939 5.84468 7.43208 5.4381 7.33747 5.1821C7.24285 4.91104 7.05363 4.73033 6.76979 4.63998C6.50172 4.53457 6.09962 4.47433 5.56348 4.45927V4.00751C5.89463 4.02257 6.32827 4.04515 6.8644 4.07527C7.40054 4.09033 7.9288 4.09033 8.44917 4.07527C9.00107 4.06021 9.62394 4.04515 10.3178 4.0301C11.0116 4.01504 11.5793 4.00751 12.0208 4.00751C12.2748 4.00751 12.5229 4.013 12.7652 4.02397L12.7747 4H12.9587H13.1426L13.1613 4.04719ZM12.5896 4.46588C12.2244 4.43136 11.8377 4.41409 11.4295 4.41409C10.7041 4.41409 10.231 4.5421 10.0103 4.7981C9.78951 5.0541 9.67913 5.57363 9.67913 6.35668V11.7915L12.5896 4.46588ZM9.67913 13.986V17.6508C9.67913 18.4339 9.78951 18.9534 10.0103 19.2094C10.2468 19.4654 10.7278 19.5934 11.4531 19.5934C13.1719 19.5934 14.5044 19.2997 15.4505 18.7124C15.8032 18.4879 16.1164 18.2257 16.3902 17.9259C16.3612 17.843 16.3286 17.7564 16.2924 17.6662L14.8813 13.986H9.67913ZM14.7092 13.5372L12.1406 6.83833L9.67913 13.0795V13.5372H14.7092ZM17.65 15.3413L13.3698 4.57173C14.1271 4.70861 14.7733 4.93466 15.3086 5.24986C16.2705 5.79198 16.9564 6.62021 17.3664 7.73457C17.7922 8.83386 18.005 10.2268 18.005 11.9134C18.005 13.2114 17.8867 14.3541 17.65 15.3413ZM16.545 18.9289C16.5116 18.9473 16.4778 18.9655 16.4439 18.9835C16.0224 19.2072 15.5716 19.3939 15.0917 19.5437C15.7841 19.5035 16.2303 19.3788 16.4303 19.1697C16.4863 19.1073 16.5245 19.027 16.545 18.9289Z" fill="#FDC021"/>
</svg>
