<svg width="64" height="66" viewBox="0 0 64 66" fill="none" xmlns="http://www.w3.org/2000/svg">
<path d="M49.7347 43.3674C46.8086 48.3349 41.7551 52.2964 36.1723 54.2689C30.5909 56.2409 24.5957 56.1894 19.7238 53.3196C14.8519 50.4498 11.9004 45.2311 10.9194 39.3935C9.93806 33.5544 10.953 27.2139 13.8791 22.2465C16.8052 17.279 21.8587 13.3175 27.4415 11.345C33.0229 9.37298 39.0181 9.42444 43.89 12.2943C48.7619 15.1641 51.7134 20.3827 52.6945 26.2204C53.6758 32.0595 52.6608 38.4 49.7347 43.3674Z" stroke="#331B3B" stroke-opacity="0.64" stroke-width="2"/>
<g clip-path="url(#clip0_410_12)">
<path d="M32.7065 23.1273C35.8612 23.1273 36.2315 23.1414 37.4784 23.1976C38.6315 23.2492 39.2549 23.4414 39.6721 23.6055C40.2252 23.8211 40.619 24.0742 41.0315 24.4867C41.444 24.8992 41.7018 25.293 41.9127 25.8461C42.0721 26.2633 42.269 26.8867 42.3206 28.0398C42.3768 29.2867 42.3909 29.657 42.3909 32.8117C42.3909 35.9664 42.3768 36.3367 42.3206 37.5836C42.269 38.7367 42.0768 39.3601 41.9127 39.7773C41.6971 40.3305 41.444 40.7242 41.0315 41.1367C40.619 41.5492 40.2252 41.807 39.6721 42.018C39.2549 42.1773 38.6315 42.3742 37.4784 42.4258C36.2315 42.482 35.8612 42.4961 32.7065 42.4961C29.5518 42.4961 29.1815 42.482 27.9346 42.4258C26.7815 42.3742 26.1581 42.182 25.7409 42.018C25.1877 41.8023 24.794 41.5492 24.3815 41.1367C23.969 40.7242 23.7112 40.3305 23.5002 39.7773C23.3409 39.3601 23.144 38.7367 23.0924 37.5836C23.0362 36.3367 23.0221 35.9664 23.0221 32.8117C23.0221 29.657 23.0362 29.2867 23.0924 28.0398C23.144 26.8867 23.3362 26.2633 23.5002 25.8461C23.7159 25.293 23.969 24.8992 24.3815 24.4867C24.794 24.0742 25.1877 23.8164 25.7409 23.6055C26.1581 23.4461 26.7815 23.2492 27.9346 23.1976C29.1815 23.1367 29.5518 23.1273 32.7065 23.1273ZM32.7065 20.9992C29.5002 20.9992 29.0971 21.0133 27.8362 21.0695C26.5799 21.1258 25.7221 21.3273 24.9721 21.618C24.194 21.918 23.5377 22.3258 22.8815 22.982C22.2252 23.6383 21.8221 24.2992 21.5174 25.0726C21.2268 25.8226 21.0252 26.6805 20.969 27.9414C20.9127 29.1976 20.8987 29.6008 20.8987 32.807C20.8987 36.0133 20.9127 36.4164 20.969 37.6773C21.0252 38.9336 21.2268 39.7914 21.5174 40.5461C21.8174 41.3242 22.2252 41.9805 22.8815 42.6367C23.5377 43.293 24.1987 43.6961 24.9721 44.0008C25.7221 44.2914 26.5799 44.493 27.8409 44.5492C29.1018 44.6055 29.5002 44.6195 32.7112 44.6195C35.9221 44.6195 36.3206 44.6055 37.5815 44.5492C38.8377 44.493 39.6956 44.2914 40.4502 44.0008C41.2284 43.7008 41.8846 43.293 42.5409 42.6367C43.1971 41.9805 43.6002 41.3195 43.9049 40.5461C44.1956 39.7961 44.3971 38.9383 44.4534 37.6773C44.5096 36.4164 44.5237 36.018 44.5237 32.807C44.5237 29.5961 44.5096 29.1976 44.4534 27.9367C44.3971 26.6805 44.1956 25.8226 43.9049 25.068C43.6049 24.2898 43.1971 23.6336 42.5409 22.9773C41.8846 22.3211 41.2237 21.918 40.4502 21.6133C39.7002 21.3226 38.8424 21.1211 37.5815 21.0648C36.3159 21.0133 35.9127 20.9992 32.7065 20.9992Z" fill="#331B3B"/>
<path d="M32.7065 26.7414C29.3596 26.7414 26.6409 29.4555 26.6409 32.807C26.6409 36.1586 29.3596 38.8726 32.7065 38.8726C36.0534 38.8726 38.7721 36.1539 38.7721 32.807C38.7721 29.4601 36.0534 26.7414 32.7065 26.7414ZM32.7065 36.7445C30.5315 36.7445 28.769 34.982 28.769 32.807C28.769 30.632 30.5315 28.8695 32.7065 28.8695C34.8815 28.8695 36.644 30.632 36.644 32.807C36.644 34.982 34.8815 36.7445 32.7065 36.7445Z" fill="#331B3B"/>
<path d="M39.0112 27.918C39.793 27.918 40.4268 27.2842 40.4268 26.5024C40.4268 25.7205 39.793 25.0867 39.0112 25.0867C38.2294 25.0867 37.5956 25.7205 37.5956 26.5024C37.5956 27.2842 38.2294 27.918 39.0112 27.918Z" fill="#331B3B"/>
</g>
<defs>
<clipPath id="clip0_410_12">
<rect width="24" height="24" fill="white" transform="translate(20.7065 20.8071)"/>
</clipPath>
</defs>
</svg>
