<svg width="64" height="66" viewBox="0 0 64 66" fill="none" xmlns="http://www.w3.org/2000/svg">
<path d="M49.7347 43.3674C46.8086 48.3349 41.7551 52.2964 36.1723 54.2689C30.5909 56.2409 24.5957 56.1894 19.7238 53.3196C14.8519 50.4498 11.9004 45.2311 10.9194 39.3935C9.93806 33.5544 10.953 27.2139 13.8791 22.2465C16.8052 17.279 21.8587 13.3175 27.4415 11.345C33.0229 9.37298 39.0181 9.42444 43.89 12.2943C48.7619 15.1641 51.7134 20.3827 52.6945 26.2204C53.6758 32.0595 52.6608 38.4 49.7347 43.3674Z" stroke="#331B3B" stroke-opacity="0.64" stroke-width="2"/>
<g clip-path="url(#clip0_410_13)">
<path fill-rule="evenodd" clip-rule="evenodd" d="M41.2566 41.8071H37.5582V35.5079C37.5582 33.7808 36.9019 32.8156 35.5349 32.8156C34.0478 32.8156 33.2709 33.82 33.2709 35.5079V41.8071H29.7066V29.8071H33.2709V31.4235C33.2709 31.4235 34.3425 29.4405 36.889 29.4405C39.4343 29.4405 41.2566 30.9948 41.2566 34.2095V41.8071ZM25.4544 28.2358C24.2404 28.2358 23.2566 27.2443 23.2566 26.0215C23.2566 24.7986 24.2404 23.8071 25.4544 23.8071C26.6685 23.8071 27.6517 24.7986 27.6517 26.0215C27.6517 27.2443 26.6685 28.2358 25.4544 28.2358ZM23.614 41.8071H27.3306V29.8071H23.614V41.8071Z" fill="#331B3B"/>
</g>
<defs>
<clipPath id="clip0_410_13">
<rect width="18" height="18" fill="white" transform="translate(23.2566 23.8071)"/>
</clipPath>
</defs>
</svg>
