<svg width="1400" height="652" viewBox="0 0 1400 652" fill="none" xmlns="http://www.w3.org/2000/svg">
<path d="M1453.91 367.542C1453.95 368.885 1453.98 370.234 1453.99 371.588L1452.99 371.598C1453 372.271 1453 372.946 1453 373.622C1453 374.285 1453 374.947 1452.99 375.609L1453.99 375.619C1453.98 376.95 1453.95 378.282 1453.91 379.613L1452.91 379.584C1452.87 380.909 1452.82 382.234 1452.76 383.559L1453.76 383.608C1453.69 384.938 1453.61 386.268 1453.52 387.599L1452.53 387.531C1452.44 388.852 1452.33 390.172 1452.22 391.493L1453.22 391.579C1453.1 392.906 1452.97 394.232 1452.83 395.558L1451.84 395.453C1451.7 396.773 1451.55 398.092 1451.39 399.411L1452.38 399.534C1452.21 400.853 1452.04 402.171 1451.85 403.488L1450.86 403.348C1450.68 404.659 1450.48 405.97 1450.27 407.281L1451.25 407.439C1451.04 408.755 1450.82 410.071 1450.58 411.385L1449.6 411.209C1449.37 412.512 1449.12 413.814 1448.87 415.115L1449.85 415.308C1449.59 416.613 1449.32 417.917 1449.04 419.22L1448.07 419.011C1447.79 420.308 1447.5 421.604 1447.2 422.899L1448.17 423.125C1447.87 424.422 1447.56 425.717 1447.23 427.01L1446.26 426.768C1445.94 428.052 1445.61 429.335 1445.27 430.616L1446.24 430.874C1445.89 432.161 1445.54 433.446 1445.17 434.729L1444.21 434.456C1443.85 435.732 1443.47 437.007 1443.09 438.28L1444.04 438.569C1443.66 439.841 1443.27 441.11 1442.86 442.378L1441.91 442.074C1441.5 443.337 1441.09 444.598 1440.67 445.857L1441.61 446.176C1441.19 447.44 1440.75 448.702 1440.31 449.962L1439.37 449.628C1438.92 450.876 1438.47 452.121 1438.01 453.364L1438.95 453.712C1438.49 454.959 1438.01 456.204 1437.53 457.447L1436.6 457.085C1436.12 458.323 1435.63 459.558 1435.13 460.792L1436.06 461.167C1435.56 462.4 1435.05 463.631 1434.53 464.859L1433.61 464.47C1433.09 465.69 1432.57 466.908 1432.03 468.123L1432.95 468.525C1432.41 469.744 1431.87 470.961 1431.32 472.175L1430.41 471.76C1429.85 472.968 1429.29 474.174 1428.72 475.377L1429.63 475.805C1429.06 477.005 1428.48 478.203 1427.9 479.398L1427 478.957C1426.41 480.148 1425.82 481.336 1425.22 482.521L1426.11 482.974C1425.51 484.163 1424.9 485.348 1424.27 486.531L1423.39 486.066C1422.77 487.239 1422.15 488.409 1421.52 489.576L1422.4 490.053C1421.76 491.222 1421.12 492.388 1420.47 493.551L1419.6 493.062C1418.95 494.221 1418.29 495.377 1417.63 496.529L1418.49 497.029C1417.83 498.182 1417.15 499.332 1416.47 500.479L1415.61 499.967C1414.93 501.106 1414.25 502.242 1413.56 503.374L1414.41 503.896C1413.71 505.032 1413.01 506.163 1412.3 507.292L1411.45 506.758C1410.74 507.883 1410.03 509.004 1409.3 510.121L1410.14 510.665C1409.42 511.78 1408.69 512.892 1407.95 514L1407.12 513.445C1406.38 514.549 1405.64 515.649 1404.89 516.746L1405.71 517.31C1404.96 518.41 1404.2 519.506 1403.43 520.597L1402.62 520.022C1401.85 521.108 1401.08 522.189 1400.31 523.267L1401.12 523.852C1400.34 524.931 1399.55 526.006 1398.76 527.076L1397.96 526.481C1397.16 527.548 1396.37 528.61 1395.56 529.669L1396.36 530.274C1395.55 531.335 1394.74 532.392 1393.92 533.444L1393.13 532.83C1392.32 533.876 1391.49 534.918 1390.67 535.955L1391.45 536.579C1390.62 537.619 1389.78 538.655 1388.93 539.686L1388.16 539.052C1387.32 540.08 1386.47 541.103 1385.62 542.121L1386.38 542.764C1385.53 543.784 1384.66 544.8 1383.79 545.81L1383.04 545.158C1382.17 546.164 1381.3 547.166 1380.42 548.163L1381.17 548.824C1380.29 549.823 1379.4 550.818 1378.51 551.807L1377.77 551.137C1376.88 552.124 1375.98 553.105 1375.08 554.081L1375.82 554.76C1374.91 555.737 1374 556.71 1373.09 557.678L1372.36 556.99C1371.45 557.955 1370.53 558.914 1369.6 559.868L1370.32 560.564C1369.39 561.52 1368.46 562.472 1367.52 563.417L1366.81 562.713C1365.88 563.656 1364.94 564.593 1363.99 565.524L1364.69 566.237C1363.74 567.172 1362.79 568.1 1361.83 569.023L1361.13 568.302C1360.17 569.222 1359.21 570.137 1358.24 571.046L1358.93 571.775C1357.96 572.686 1356.98 573.592 1356 574.492L1355.32 573.754C1354.34 574.652 1353.36 575.544 1352.37 576.429L1353.03 577.175C1352.04 578.063 1351.04 578.945 1350.04 579.821L1349.38 579.068C1348.38 579.941 1347.37 580.809 1346.36 581.67L1347.01 582.431C1346 583.295 1344.98 584.154 1343.95 585.006L1343.32 584.237C1342.29 585.086 1341.27 585.93 1340.24 586.767L1340.87 587.543C1339.83 588.383 1338.79 589.216 1337.75 590.042L1337.13 589.258C1336.09 590.082 1335.04 590.9 1333.99 591.711L1334.6 592.503C1333.55 593.318 1332.49 594.126 1331.42 594.928L1330.82 594.129C1329.76 594.928 1328.69 595.72 1327.62 596.506L1328.21 597.312C1327.14 598.1 1326.06 598.88 1324.98 599.654L1324.4 598.841C1323.32 599.614 1322.23 600.38 1321.14 601.139L1321.71 601.96C1320.62 602.722 1319.52 603.477 1318.42 604.224L1317.85 603.397C1316.76 604.142 1315.65 604.88 1314.55 605.61L1315.1 606.445C1313.98 607.179 1312.87 607.905 1311.75 608.624L1311.21 607.782C1310.09 608.501 1308.96 609.212 1307.84 609.915L1308.37 610.763C1307.24 611.469 1306.1 612.167 1304.96 612.857L1304.44 612.001C1303.31 612.689 1302.17 613.369 1301.03 614.041L1301.54 614.903C1300.39 615.58 1299.23 616.249 1298.08 616.91L1297.58 616.042C1296.42 616.701 1295.27 617.352 1294.11 617.995L1294.59 618.87C1293.42 619.515 1292.26 620.152 1291.08 620.781L1290.61 619.9C1289.44 620.528 1288.27 621.147 1287.09 621.759L1287.55 622.646C1286.37 623.261 1285.18 623.868 1283.99 624.466L1283.54 623.572C1282.35 624.168 1281.16 624.755 1279.97 625.333L1280.4 626.233C1279.21 626.814 1278.01 627.386 1276.8 627.949L1276.38 627.043C1275.17 627.608 1273.96 628.163 1272.75 628.709L1273.16 629.621C1271.95 630.169 1270.73 630.708 1269.51 631.238L1269.11 630.321C1267.89 630.849 1266.67 631.367 1265.45 631.877L1265.84 632.8C1264.6 633.314 1263.37 633.818 1262.13 634.312L1261.76 633.384C1260.53 633.878 1259.29 634.362 1258.05 634.837L1258.41 635.771C1257.17 636.247 1255.92 636.714 1254.67 637.171L1254.33 636.232C1253.08 636.688 1251.83 637.135 1250.58 637.571L1250.91 638.515C1249.65 638.955 1248.39 639.385 1247.12 639.805L1246.81 638.856C1245.55 639.275 1244.28 639.683 1243.02 640.081L1243.32 641.035C1242.05 641.435 1240.78 641.824 1239.51 642.203L1239.22 641.245C1237.95 641.624 1236.67 641.994 1235.39 642.353L1235.66 643.315C1234.38 643.676 1233.09 644.025 1231.8 644.364L1231.55 643.397C1230.26 643.735 1228.98 644.062 1227.7 644.378L1227.93 645.349C1226.64 645.668 1225.34 645.975 1224.04 646.272L1223.82 645.297C1222.53 645.593 1221.23 645.878 1219.93 646.152L1220.14 647.131C1218.83 647.406 1217.53 647.669 1216.22 647.922L1216.03 646.94C1214.73 647.192 1213.43 647.433 1212.12 647.662L1212.3 648.647C1210.98 648.878 1209.67 649.097 1208.35 649.305L1208.19 648.317C1206.88 648.524 1205.57 648.719 1204.26 648.902L1204.4 649.893C1203.08 650.077 1201.76 650.249 1200.44 650.41L1200.32 649.417C1199 649.578 1197.68 649.726 1196.36 649.863L1196.46 650.857C1195.14 650.994 1193.81 651.119 1192.49 651.232L1192.4 650.236C1191.08 650.348 1189.76 650.448 1188.44 650.536L1188.5 651.534C1187.17 651.622 1185.84 651.698 1184.51 651.761L1184.46 650.762C1183.14 650.825 1181.81 650.876 1180.49 650.914L1180.52 651.914C1179.19 651.952 1177.86 651.978 1176.52 651.99L1176.51 650.99C1175.85 650.997 1175.19 651 1174.53 651C1173.85 651 1173.18 650.997 1172.51 650.992L1172.51 651.992C1171.16 651.982 1169.82 651.961 1168.48 651.93L1168.5 650.93C1167.17 650.899 1165.83 650.858 1164.5 650.807L1164.47 651.806C1163.13 651.754 1161.79 651.692 1160.46 651.62L1160.51 650.622C1159.17 650.549 1157.84 650.466 1156.5 650.373L1156.43 651.371C1155.1 651.277 1153.76 651.174 1152.43 651.06L1152.51 650.064C1151.19 649.95 1149.86 649.826 1148.54 649.693L1148.44 650.687C1147.1 650.552 1145.76 650.406 1144.43 650.25L1144.55 649.257C1143.22 649.101 1141.9 648.936 1140.57 648.76L1140.44 649.751C1139.12 649.575 1137.79 649.388 1136.47 649.191L1136.62 648.202C1135.3 648.005 1133.97 647.797 1132.66 647.58L1132.49 648.566C1131.17 648.347 1129.85 648.118 1128.53 647.879L1128.71 646.895C1127.4 646.657 1126.09 646.409 1124.78 646.151L1124.59 647.132C1123.27 646.872 1121.96 646.601 1120.65 646.32L1120.86 645.342C1119.55 645.062 1118.25 644.772 1116.95 644.472L1116.72 645.446C1115.42 645.145 1114.11 644.833 1112.82 644.512L1113.06 643.541C1111.76 643.22 1110.47 642.889 1109.18 642.548L1108.92 643.514C1107.62 643.171 1106.33 642.818 1105.04 642.455L1105.31 641.492C1104.03 641.13 1102.75 640.759 1101.47 640.378L1101.18 641.336C1099.9 640.952 1098.62 640.558 1097.34 640.154L1097.64 639.201C1096.37 638.798 1095.1 638.385 1093.83 637.962L1093.51 638.911C1092.24 638.487 1090.98 638.053 1089.72 637.609L1090.05 636.666C1088.79 636.223 1087.53 635.77 1086.28 635.308L1085.93 636.246C1084.68 635.781 1083.42 635.306 1082.17 634.822L1082.53 633.89C1081.29 633.407 1080.05 632.915 1078.81 632.414L1078.44 633.34C1077.2 632.836 1075.96 632.322 1074.73 631.799L1075.12 630.879C1073.89 630.356 1072.66 629.824 1071.44 629.283L1071.04 630.197C1069.81 629.654 1068.59 629.101 1067.38 628.539L1067.8 627.631C1066.59 627.071 1065.38 626.501 1064.18 625.922L1063.74 626.823C1062.54 626.24 1061.33 625.648 1060.13 625.047L1060.58 624.153C1059.39 623.554 1058.2 622.946 1057.02 622.329L1056.56 623.216C1055.37 622.596 1054.19 621.967 1053.01 621.329L1053.49 620.45C1052.31 619.813 1051.14 619.167 1049.98 618.512L1049.49 619.383C1048.32 618.725 1047.16 618.059 1046 617.384L1046.51 616.52C1045.36 615.847 1044.21 615.165 1043.07 614.474L1042.55 615.33C1041.4 614.635 1040.26 613.931 1039.13 613.219L1039.66 612.372C1038.53 611.662 1037.4 610.944 1036.28 610.217L1035.74 611.056C1034.62 610.325 1033.5 609.587 1032.39 608.839L1032.95 608.01C1031.84 607.264 1030.73 606.51 1029.64 605.747L1029.07 606.568C1027.97 605.802 1026.87 605.028 1025.79 604.246L1026.37 603.434C1025.29 602.655 1024.21 601.867 1023.14 601.07L1022.54 601.873C1021.47 601.072 1020.4 600.263 1019.34 599.446L1019.95 598.653C1018.89 597.84 1017.84 597.018 1016.79 596.188L1016.17 596.97C1015.12 596.137 1014.08 595.295 1013.05 594.445L1013.68 593.672C1012.65 592.825 1011.62 591.969 1010.6 591.106L1009.96 591.869C1008.94 591.002 1007.92 590.128 1006.91 589.245L1007.57 588.493C1006.57 587.614 1005.57 586.727 1004.58 585.832L1003.91 586.574C1002.92 585.675 1001.93 584.768 1000.95 583.853L1001.63 583.122C1000.66 582.212 999.688 581.293 998.727 580.367L998.033 581.087C997.068 580.158 996.111 579.22 995.161 578.275L995.867 577.566C994.92 576.625 993.981 575.676 993.05 574.72L992.334 575.417C991.399 574.457 990.472 573.49 989.553 572.515L990.28 571.829C989.365 570.858 988.457 569.88 987.557 568.894L986.819 569.569C985.915 568.579 985.019 567.582 984.132 566.579L984.881 565.916C983.996 564.916 983.12 563.91 982.252 562.896L981.493 563.546C980.621 562.529 979.758 561.504 978.903 560.472L979.673 559.834C978.821 558.807 977.977 557.772 977.142 556.731L976.362 557.357C975.524 556.312 974.694 555.26 973.872 554.201L974.662 553.588C973.844 552.534 973.034 551.473 972.232 550.406L971.433 551.006C970.628 549.935 969.833 548.857 969.045 547.773L969.855 547.185C969.071 546.105 968.295 545.019 967.529 543.926L966.71 544.501C965.94 543.404 965.18 542.301 964.428 541.191L965.255 540.63C964.507 539.526 963.767 538.416 963.036 537.299L962.2 537.847C961.466 536.726 960.741 535.598 960.025 534.465L960.87 533.931C960.158 532.803 959.454 531.669 958.759 530.529L957.905 531.049C957.209 529.905 956.521 528.756 955.843 527.601L956.705 527.094C956.029 525.944 955.362 524.787 954.705 523.625L953.835 524.117C953.175 522.951 952.525 521.779 951.884 520.602L952.762 520.124C952.124 518.953 951.496 517.776 950.877 516.594L949.991 517.058C949.37 515.871 948.758 514.678 948.155 513.48L949.049 513.031C948.449 511.839 947.859 510.642 947.279 509.439L946.378 509.873C945.796 508.668 945.224 507.458 944.662 506.242L945.569 505.822C945.009 504.611 944.458 503.395 943.917 502.174L943.003 502.579C942.46 501.354 941.927 500.124 941.404 498.889L942.325 498.499C941.805 497.272 941.295 496.04 940.795 494.803L939.868 495.178C939.366 493.936 938.874 492.689 938.391 491.438L939.324 491.078C938.845 489.833 938.375 488.583 937.915 487.328L936.976 487.673C936.515 486.417 936.065 485.157 935.624 483.892L936.569 483.563C936.13 482.303 935.702 481.039 935.283 479.77L934.333 480.083C933.914 478.811 933.504 477.534 933.104 476.252L934.059 475.955C933.663 474.684 933.277 473.408 932.901 472.129L931.942 472.41C931.564 471.126 931.197 469.837 930.84 468.543L931.804 468.277C931.449 466.99 931.104 465.699 930.769 464.404L929.801 464.654C929.467 463.361 929.143 462.063 928.829 460.762L929.802 460.527C929.489 459.231 929.187 457.931 928.896 456.627L927.92 456.845C927.627 455.536 927.345 454.224 927.074 452.907L928.053 452.705C927.784 451.403 927.526 450.097 927.278 448.787L926.295 448.973C926.046 447.658 925.808 446.34 925.58 445.017L926.566 444.848C926.339 443.531 926.122 442.21 925.916 440.887L924.928 441.04C924.723 439.722 924.529 438.4 924.345 437.074L925.335 436.937C925.152 435.617 924.98 434.294 924.818 432.968L923.825 433.089C923.662 431.758 923.51 430.423 923.369 429.085L924.364 428.98C924.224 427.658 924.095 426.333 923.976 425.005L922.98 425.093C922.862 423.762 922.754 422.427 922.656 421.09L923.654 421.017C923.557 419.685 923.47 418.35 923.395 417.012L922.396 417.068C922.321 415.735 922.256 414.398 922.202 413.059L923.202 413.019C923.148 411.69 923.105 410.358 923.073 409.023L922.073 409.047C922.041 407.707 922.019 406.365 922.008 405.02L923.008 405.012C923.003 404.342 923 403.671 923 403C923 402.329 923.003 401.658 923.008 400.988L922.008 400.98C922.019 399.635 922.041 398.292 922.073 396.952L923.073 396.977C923.105 395.642 923.148 394.31 923.202 392.981L922.202 392.94C922.256 391.601 922.321 390.265 922.396 388.931L923.395 388.988C923.47 387.65 923.557 386.315 923.654 384.983L922.656 384.91C922.754 383.573 922.862 382.238 922.98 380.906L923.976 380.995C924.095 379.667 924.224 378.342 924.364 377.02L923.369 376.915C923.51 375.577 923.662 374.242 923.825 372.911L924.818 373.032C924.98 371.706 925.152 370.383 925.335 369.063L924.345 368.926C924.529 367.6 924.723 366.278 924.928 364.96L925.916 365.113C926.122 363.789 926.339 362.469 926.566 361.152L925.58 360.982C925.808 359.66 926.046 358.342 926.295 357.027L927.278 357.213C927.526 355.903 927.784 354.597 928.053 353.295L927.074 353.093C927.345 351.776 927.627 350.464 927.92 349.155L928.896 349.373C929.187 348.069 929.489 346.769 929.802 345.473L928.829 345.238C929.143 343.937 929.467 342.639 929.801 341.346L930.769 341.596C931.104 340.301 931.449 339.01 931.804 337.723L930.84 337.457C931.197 336.163 931.564 334.874 931.942 333.589L932.901 333.871C933.277 332.592 933.663 331.316 934.059 330.045L933.104 329.748C933.504 328.466 933.914 327.189 934.333 325.917L935.283 326.23C935.702 324.961 936.13 323.697 936.569 322.437L935.624 322.108C936.065 320.843 936.515 319.583 936.976 318.327L937.915 318.672C938.375 317.417 938.845 316.167 939.324 314.922L938.391 314.562C938.874 313.311 939.366 312.064 939.868 310.822L940.795 311.197C941.295 309.96 941.805 308.728 942.325 307.501L941.404 307.111C941.927 305.876 942.46 304.646 943.003 303.421L943.917 303.826C944.458 302.605 945.009 301.389 945.569 300.178L944.662 299.758C945.224 298.542 945.796 297.332 946.378 296.127L947.279 296.561C947.859 295.359 948.449 294.161 949.049 292.969L948.155 292.52C948.758 291.322 949.37 290.129 949.991 288.942L950.877 289.406C951.496 288.224 952.124 287.047 952.762 285.877L951.883 285.398C952.525 284.221 953.175 283.049 953.835 281.883L954.705 282.375C955.362 281.213 956.029 280.057 956.705 278.906L955.843 278.399C956.521 277.244 957.209 276.095 957.905 274.951L958.759 275.472C959.454 274.331 960.158 273.197 960.87 272.069L960.025 271.535C960.741 270.402 961.466 269.275 962.2 268.153L963.036 268.701C963.767 267.585 964.507 266.474 965.255 265.37L964.427 264.809C965.179 263.7 965.94 262.596 966.71 261.5L967.528 262.074C968.295 260.981 969.071 259.895 969.855 258.815L969.045 258.227C969.833 257.143 970.628 256.065 971.433 254.994L972.232 255.594C973.034 254.527 973.844 253.466 974.662 252.412L973.872 251.799C974.694 250.74 975.524 249.688 976.362 248.643L977.142 249.269C977.977 248.228 978.821 247.193 979.672 246.166L978.903 245.528C979.758 244.496 980.621 243.472 981.493 242.454L982.252 243.104C983.12 242.09 983.996 241.084 984.881 240.084L984.131 239.421C985.019 238.418 985.915 237.421 986.819 236.432L987.557 237.106C988.457 236.121 989.365 235.142 990.28 234.171L989.553 233.485C990.472 232.511 991.399 231.543 992.334 230.583L993.05 231.281C993.981 230.324 994.92 229.375 995.866 228.434L995.161 227.725C996.111 226.78 997.068 225.843 998.033 224.913L998.727 225.633C999.688 224.707 1000.66 223.788 1001.63 222.878L1000.95 222.147C1001.93 221.232 1002.92 220.326 1003.91 219.427L1004.58 220.168C1005.57 219.274 1006.57 218.387 1007.57 217.507L1006.91 216.755C1007.92 215.873 1008.94 214.998 1009.96 214.131L1010.6 214.894C1011.62 214.031 1012.65 213.175 1013.68 212.328L1013.05 211.555C1014.08 210.705 1015.12 209.863 1016.17 209.03L1016.79 209.813C1017.84 208.983 1018.89 208.161 1019.95 207.347L1019.34 206.554C1020.4 205.737 1021.47 204.928 1022.54 204.128L1023.14 204.93C1024.21 204.134 1025.29 203.345 1026.37 202.566L1025.79 201.754C1026.87 200.972 1027.97 200.198 1029.07 199.432L1029.64 200.253C1030.73 199.49 1031.84 198.736 1032.95 197.991L1032.39 197.161C1033.5 196.414 1034.62 195.675 1035.74 194.945L1036.28 195.783C1037.4 195.056 1038.53 194.338 1039.66 193.628L1039.13 192.781C1040.26 192.069 1041.4 191.365 1042.55 190.67L1043.07 191.526C1044.21 190.835 1045.35 190.153 1046.51 189.48L1046 188.616C1047.16 187.941 1048.32 187.275 1049.49 186.617L1049.98 187.488C1051.14 186.833 1052.31 186.187 1053.49 185.55L1053.01 184.671C1054.19 184.033 1055.37 183.404 1056.56 182.784L1057.02 183.671C1058.2 183.054 1059.39 182.446 1060.58 181.847L1060.13 180.953C1061.33 180.352 1062.53 179.76 1063.74 179.177L1064.18 180.078C1065.38 179.499 1066.59 178.929 1067.8 178.369L1067.38 177.461C1068.59 176.899 1069.81 176.346 1071.04 175.803L1071.44 176.717C1072.66 176.176 1073.89 175.644 1075.12 175.121L1074.73 174.201C1075.96 173.678 1077.2 173.164 1078.44 172.66L1078.81 173.586C1080.05 173.085 1081.29 172.593 1082.53 172.11L1082.17 171.178C1083.42 170.694 1084.68 170.219 1085.93 169.754L1086.28 170.692C1087.53 170.23 1088.79 169.777 1090.05 169.334L1089.72 168.391C1090.98 167.947 1092.24 167.513 1093.52 167.089L1093.83 168.038C1095.1 167.615 1096.37 167.202 1097.64 166.799L1097.34 165.846C1098.62 165.442 1099.9 165.048 1101.18 164.664L1101.47 165.622C1102.75 165.241 1104.03 164.87 1105.31 164.508L1105.04 163.545C1106.33 163.182 1107.62 162.829 1108.92 162.486L1109.18 163.452C1110.47 163.111 1111.76 162.78 1113.06 162.459L1112.82 161.488C1114.11 161.167 1115.42 160.855 1116.72 160.554L1116.95 161.528C1118.25 161.228 1119.55 160.938 1120.86 160.658L1120.65 159.68C1121.96 159.399 1123.27 159.128 1124.59 158.868L1124.78 159.849C1126.09 159.591 1127.4 159.343 1128.71 159.104L1128.53 158.121C1129.85 157.882 1131.17 157.653 1132.49 157.434L1132.66 158.42C1133.97 158.203 1135.3 157.995 1136.62 157.798L1136.47 156.809C1137.79 156.612 1139.12 156.425 1140.44 156.249L1140.57 157.24C1141.9 157.064 1143.22 156.899 1144.55 156.743L1144.43 155.75C1145.76 155.594 1147.1 155.448 1148.44 155.313L1148.54 156.307C1149.86 156.174 1151.19 156.05 1152.51 155.936L1152.43 154.94C1153.76 154.826 1155.1 154.723 1156.44 154.629L1156.5 155.627C1157.84 155.534 1159.17 155.451 1160.51 155.378L1160.46 154.38C1161.79 154.308 1163.13 154.246 1164.47 154.194L1164.5 155.193C1165.83 155.142 1167.17 155.101 1168.5 155.07L1168.48 154.07C1169.82 154.039 1171.16 154.018 1172.51 154.008L1172.51 155.008C1173.18 155.003 1173.85 155 1174.53 155C1175.2 155 1175.87 155.002 1176.53 155.006L1176.54 154.006C1177.88 154.013 1179.23 154.029 1180.57 154.051L1180.55 155.051C1181.89 155.074 1183.23 155.104 1184.57 155.142L1184.6 154.142C1185.94 154.18 1187.28 154.226 1188.62 154.279L1188.58 155.278C1189.92 155.331 1191.26 155.391 1192.6 155.459L1192.65 154.46C1193.99 154.528 1195.33 154.604 1196.67 154.687L1196.61 155.685C1197.94 155.768 1199.28 155.858 1200.61 155.956L1200.69 154.959C1202.03 155.057 1203.37 155.162 1204.71 155.275L1204.62 156.272C1205.96 156.384 1207.29 156.505 1208.62 156.632L1208.72 155.637C1210.05 155.765 1211.39 155.9 1212.72 156.043L1212.62 157.037C1213.95 157.18 1215.28 157.33 1216.61 157.487L1216.73 156.494C1218.06 156.652 1219.4 156.817 1220.73 156.989L1220.6 157.981C1221.93 158.153 1223.25 158.333 1224.58 158.52L1224.72 157.529C1226.05 157.717 1227.38 157.912 1228.71 158.114L1228.55 159.103C1229.88 159.305 1231.2 159.514 1232.52 159.731L1232.69 158.744C1234.01 158.962 1235.34 159.186 1236.66 159.418L1236.48 160.403C1237.8 160.635 1239.12 160.874 1240.44 161.12L1240.62 160.137C1241.94 160.384 1243.26 160.639 1244.58 160.901L1244.38 161.882C1245.7 162.143 1247.01 162.412 1248.32 162.688L1248.52 161.709C1249.84 161.986 1251.15 162.27 1252.46 162.561L1252.24 163.537C1253.55 163.829 1254.86 164.128 1256.16 164.434L1256.39 163.46C1257.7 163.767 1259 164.082 1260.31 164.403L1260.07 165.374C1261.37 165.695 1262.66 166.023 1263.96 166.358L1264.21 165.39C1265.51 165.727 1266.81 166.072 1268.11 166.424L1267.84 167.389C1269.14 167.74 1270.43 168.099 1271.71 168.465L1271.99 167.503C1273.28 167.87 1274.57 168.244 1275.85 168.625L1275.57 169.584C1276.85 169.965 1278.14 170.354 1279.41 170.75L1279.71 169.795C1281 170.193 1282.28 170.598 1283.55 171.011L1283.25 171.962C1284.52 172.374 1285.79 172.792 1287.06 173.218L1287.38 172.27C1288.65 172.698 1289.92 173.134 1291.19 173.577L1290.86 174.521C1292.12 174.964 1293.39 175.414 1294.64 175.871L1294.99 174.931C1296.25 175.39 1297.51 175.856 1298.76 176.329L1298.41 177.264C1299.66 177.737 1300.91 178.218 1302.15 178.705L1302.52 177.774C1303.77 178.265 1305.02 178.763 1306.27 179.268L1305.89 180.195C1307.13 180.699 1308.37 181.21 1309.6 181.728L1309.99 180.807C1311.22 181.327 1312.46 181.856 1313.69 182.391L1313.29 183.308C1314.52 183.844 1315.74 184.388 1316.96 184.939L1317.38 184.028C1318.6 184.581 1319.82 185.141 1321.03 185.709L1320.61 186.615C1321.82 187.181 1323.03 187.754 1324.23 188.335L1324.67 187.435C1325.88 188.021 1327.09 188.615 1328.29 189.216L1327.84 190.11C1329.04 190.709 1330.23 191.316 1331.42 191.93L1331.88 191.041C1333.07 191.657 1334.26 192.28 1335.44 192.911L1334.97 193.793C1336.15 194.426 1337.33 195.066 1338.5 195.714L1338.99 194.839C1340.16 195.489 1341.33 196.146 1342.5 196.811L1342 197.679C1343.16 198.342 1344.32 199.012 1345.47 199.689L1345.98 198.827C1347.14 199.512 1348.29 200.204 1349.44 200.903L1348.92 201.757C1350.06 202.454 1351.2 203.159 1352.33 203.871L1352.87 203.024C1354 203.739 1355.13 204.46 1356.25 205.189L1355.71 206.028C1356.83 206.76 1357.95 207.499 1359.06 208.245L1359.62 207.415C1360.74 208.165 1361.85 208.923 1362.95 209.687L1362.38 210.509C1363.48 211.271 1364.57 212.04 1365.65 212.816L1366.23 212.004C1367.33 212.789 1368.41 213.581 1369.49 214.381L1368.9 215.185C1369.98 215.982 1371.04 216.787 1372.1 217.6L1372.71 216.806C1373.78 217.621 1374.83 218.444 1375.88 219.275L1375.26 220.059C1376.32 220.892 1377.36 221.732 1378.4 222.579L1379.03 221.806C1380.07 222.657 1381.1 223.517 1382.13 224.383L1381.48 225.147C1382.5 226.01 1383.51 226.88 1384.51 227.758L1385.17 227.006C1386.18 227.894 1387.19 228.789 1388.19 229.691L1387.51 230.432C1388.51 231.331 1389.49 232.238 1390.46 233.152L1391.15 232.423C1392.12 233.341 1393.09 234.266 1394.05 235.199L1393.36 235.916C1394.32 236.851 1395.27 237.793 1396.21 238.743L1396.92 238.039C1397.87 238.993 1398.81 239.954 1399.73 240.923L1399.01 241.615C1399.94 242.58 1400.85 243.552 1401.75 244.532L1402.49 243.854C1403.4 244.843 1404.3 245.84 1405.2 246.845L1404.45 247.509C1405.34 248.509 1406.22 249.516 1407.08 250.53L1407.84 249.88C1408.72 250.9 1409.58 251.928 1410.43 252.963L1409.66 253.598C1410.51 254.632 1411.35 255.673 1412.18 256.722L1412.96 256.101C1413.8 257.155 1414.62 258.216 1415.43 259.285L1414.63 259.89C1415.44 260.954 1416.24 262.025 1417.02 263.104L1417.83 262.515C1418.62 263.601 1419.4 264.695 1420.17 265.796L1419.35 266.369C1420.12 267.464 1420.87 268.568 1421.61 269.678L1422.45 269.122C1423.19 270.239 1423.93 271.362 1424.65 272.493L1423.81 273.032C1424.52 274.158 1425.23 275.291 1425.93 276.431L1426.78 275.911C1427.48 277.057 1428.17 278.211 1428.84 279.372L1427.98 279.874C1428.65 281.029 1429.31 282.19 1429.96 283.359L1430.83 282.874C1431.48 284.048 1432.12 285.23 1432.74 286.418L1431.86 286.884C1432.48 288.066 1433.09 289.255 1433.69 290.452L1434.58 290.005C1435.18 291.206 1435.77 292.413 1436.34 293.628L1435.44 294.055C1436 295.261 1436.56 296.474 1437.11 297.694L1438.02 297.287C1438.57 298.513 1439.1 299.747 1439.62 300.988L1438.7 301.375C1439.21 302.604 1439.72 303.84 1440.21 305.082L1441.14 304.716C1441.63 305.962 1442.11 307.216 1442.57 308.476L1441.63 308.823C1442.1 310.076 1442.55 311.337 1442.98 312.604L1443.93 312.278C1444.36 313.544 1444.78 314.816 1445.19 316.095L1444.24 316.4C1444.65 317.668 1445.04 318.944 1445.42 320.226L1446.38 319.942C1446.76 321.231 1447.12 322.527 1447.48 323.829L1446.51 324.091C1446.86 325.374 1447.19 326.663 1447.52 327.959L1448.49 327.718C1448.81 329.017 1449.12 330.322 1449.41 331.634L1448.44 331.854C1448.73 333.158 1449.01 334.469 1449.28 335.787L1450.26 335.589C1450.52 336.897 1450.77 338.212 1451.01 339.532L1450.02 339.709C1450.26 341.018 1450.48 342.334 1450.69 343.655L1451.68 343.5C1451.89 344.828 1452.08 346.163 1452.26 347.504L1451.27 347.638C1451.45 348.952 1451.61 350.273 1451.76 351.6L1452.76 351.487C1452.91 352.814 1453.05 354.147 1453.17 355.486L1452.17 355.578C1452.3 356.91 1452.41 358.248 1452.5 359.591L1453.5 359.52C1453.6 360.851 1453.68 362.188 1453.75 363.53L1452.75 363.58C1452.81 364.906 1452.87 366.236 1452.91 367.573L1453.91 367.542Z" stroke="black" stroke-opacity="0.26" stroke-width="2" stroke-dasharray="4 4"/>
<path d="M0 0H893C1113.91 0 1293 179.086 1293 400V578H0V0Z" fill="#ECF7FF"/>
</svg>
