<svg width="30" height="30" viewBox="0 0 30 30" fill="none" xmlns="http://www.w3.org/2000/svg">
<path d="M15 29.7698C6.85592 29.7698 0.230164 23.1441 0.230164 15C0.230164 6.8559 6.85592 0.23015 15 0.23015C23.1441 0.23015 29.7698 6.8559 29.7698 15C29.7698 23.1441 23.1441 29.7698 15 29.7698ZM15.3282 20.3034C17.4544 20.3375 19.5156 20.7005 21.3894 21.353C21.8565 19.534 22.1292 17.4908 22.1545 15.3282H15.3282V20.3034ZM15.3282 20.9598V29.097C17.8486 28.8715 20.0323 26.0636 21.2158 21.9871C19.4008 21.3497 17.3976 20.9939 15.3282 20.9598ZM14.6718 20.9598C12.602 20.9939 10.5992 21.3497 8.78387 21.9874C9.96743 26.0636 12.1511 28.8715 14.6718 29.097V20.9598ZM14.6718 20.3034V15.3282H7.84549C7.87077 17.4908 8.14352 19.534 8.61057 21.353C10.4844 20.7005 12.5456 20.3375 14.6718 20.3034ZM7.18906 15.3282H0.894807C0.968984 18.5507 2.12628 21.5089 4.01879 23.8521C5.17084 22.9219 6.51982 22.1545 8.00468 21.5749C7.50546 19.686 7.21531 17.568 7.18906 15.3282ZM7.18906 14.6718C7.21499 12.432 7.50546 10.314 8.00468 8.42479C6.52015 7.84515 5.17084 7.07778 4.01912 6.14761C2.12628 8.49109 0.968984 11.4493 0.894807 14.6718H7.18906ZM7.84549 14.6718H14.6718V9.69696C12.5456 9.66283 10.4844 9.29949 8.61057 8.64699C8.14352 10.466 7.87077 12.5091 7.84549 14.6718ZM14.6718 9.04053V0.903C12.1511 1.12849 9.96743 3.9364 8.78387 8.01287C10.5992 8.65027 12.6024 9.00606 14.6718 9.04053ZM15.3282 9.04053C17.3976 9.00639 19.4008 8.6506 21.2158 8.0132C20.0323 3.9364 17.8489 1.12849 15.3282 0.903V9.04053ZM15.3282 9.69696V14.6718H22.1545C22.1292 12.5091 21.8565 10.466 21.3894 8.64699C19.5156 9.29949 17.4544 9.66283 15.3282 9.69696ZM22.8106 14.6718H29.1052C29.031 11.4493 27.8737 8.49109 25.9809 6.14761C24.8288 7.07778 23.4799 7.84548 21.995 8.42479C22.4942 10.3143 22.7847 12.432 22.8106 14.6718ZM22.8106 15.3282C22.7847 17.568 22.4942 19.6856 21.995 21.5749C23.4799 22.1545 24.8288 22.9219 25.9809 23.8521C27.8737 21.5086 29.0307 18.5503 29.1049 15.3282H22.8106ZM25.5565 24.3529C24.4747 23.4815 23.2091 22.7604 21.8168 22.2103C20.9145 25.2457 19.4621 27.6213 17.716 28.8485C20.8088 28.243 23.5419 26.6242 25.5565 24.3529ZM12.284 28.8485C10.5379 27.6213 9.08551 25.2457 8.18323 22.2106C6.79093 22.7607 5.52532 23.4818 4.44351 24.3532C6.45779 26.6242 9.19086 28.243 12.284 28.8485ZM4.44318 5.64707C5.52499 6.51849 6.79027 7.23959 8.1829 7.78968C9.08518 4.75465 10.5375 2.379 12.2837 1.15179C9.19086 1.75702 6.45779 3.3758 4.44318 5.64707ZM17.716 1.15146C19.4621 2.37867 20.9145 4.75432 21.8168 7.78968C23.2094 7.23959 24.4747 6.51849 25.5565 5.64707C23.5419 3.3758 20.8092 1.75702 17.716 1.15146Z" fill="black"/>
</svg>
