<svg width="63" height="65" viewBox="0 0 63 65" fill="none" xmlns="http://www.w3.org/2000/svg">
<path d="M49.3079 43.0028C46.3818 47.9702 41.3284 51.9318 35.7456 53.9043C30.1642 55.8763 24.169 55.8248 19.297 52.955C14.4251 50.0852 11.4737 44.8665 10.4926 39.0289C9.51131 33.1897 10.5263 26.8493 13.4524 21.8818C16.3785 16.9144 21.432 12.9529 27.0148 10.9804C32.5961 9.00835 38.5914 9.05982 43.4633 11.9296C48.3352 14.7995 51.2866 20.0181 52.2677 25.8558C53.249 31.6949 52.2341 38.0353 49.3079 43.0028Z" stroke="#FE9A22" stroke-width="2"/>
<g clip-path="url(#clip0_446_19)">
<path fill-rule="evenodd" clip-rule="evenodd" d="M33.2014 42.4424V33.4424H35.9338L36.3801 29.4424H33.2014V27.4941C33.2014 26.4641 33.2277 25.4424 34.667 25.4424H36.1248V22.5825C36.1248 22.5395 34.8726 22.4424 33.6058 22.4424C30.9601 22.4424 29.3035 24.0996 29.3035 27.1426V29.4424H26.3801V33.4424H29.3035V42.4424H33.2014Z" fill="white"/>
</g>
<defs>
<clipPath id="clip0_446_19">
<rect width="10" height="20" fill="white" transform="translate(26.3801 22.4424)"/>
</clipPath>
</defs>
</svg>
