<svg width="63" height="65" viewBox="0 0 63 65" fill="none" xmlns="http://www.w3.org/2000/svg">
<path d="M49.3079 43.0028C46.3818 47.9702 41.3284 51.9318 35.7456 53.9043C30.1642 55.8763 24.169 55.8248 19.297 52.955C14.4251 50.0852 11.4737 44.8665 10.4926 39.0289C9.51131 33.1897 10.5263 26.8493 13.4524 21.8818C16.3785 16.9144 21.432 12.9529 27.0148 10.9804C32.5961 9.00835 38.5914 9.05982 43.4633 11.9296C48.3352 14.7995 51.2866 20.0181 52.2677 25.8558C53.249 31.6949 52.2341 38.0353 49.3079 43.0028Z" stroke="#FE9A22" stroke-width="2"/>
<g clip-path="url(#clip0_446_32)">
<path d="M32.2797 22.7626C35.4344 22.7626 35.8047 22.7767 37.0516 22.833C38.2047 22.8845 38.8282 23.0767 39.2454 23.2408C39.7985 23.4564 40.1922 23.7095 40.6047 24.122C41.0172 24.5345 41.275 24.9283 41.486 25.4814C41.6454 25.8986 41.8422 26.522 41.8938 27.6751C41.95 28.922 41.9641 29.2923 41.9641 32.447C41.9641 35.6017 41.95 35.972 41.8938 37.2189C41.8422 38.372 41.65 38.9955 41.486 39.4126C41.2704 39.9658 41.0172 40.3595 40.6047 40.772C40.1922 41.1845 39.7985 41.4423 39.2454 41.6533C38.8282 41.8126 38.2047 42.0095 37.0516 42.0611C35.8047 42.1173 35.4344 42.1314 32.2797 42.1314C29.125 42.1314 28.7547 42.1173 27.5079 42.0611C26.3547 42.0095 25.7313 41.8173 25.3141 41.6533C24.761 41.4376 24.3672 41.1845 23.9547 40.772C23.5422 40.3595 23.2844 39.9658 23.0735 39.4126C22.9141 38.9955 22.7172 38.372 22.6657 37.2189C22.6094 35.972 22.5954 35.6017 22.5954 32.447C22.5954 29.2923 22.6094 28.922 22.6657 27.6751C22.7172 26.522 22.9094 25.8986 23.0735 25.4814C23.2891 24.9283 23.5422 24.5345 23.9547 24.122C24.3672 23.7095 24.761 23.4517 25.3141 23.2408C25.7313 23.0814 26.3547 22.8845 27.5079 22.833C28.7547 22.772 29.125 22.7626 32.2797 22.7626ZM32.2797 20.6345C29.0735 20.6345 28.6704 20.6486 27.4094 20.7048C26.1532 20.7611 25.2954 20.9626 24.5454 21.2533C23.7672 21.5533 23.111 21.9611 22.4547 22.6173C21.7985 23.2736 21.3954 23.9345 21.0907 24.708C20.8 25.458 20.5985 26.3158 20.5422 27.5767C20.486 28.833 20.4719 29.2361 20.4719 32.4423C20.4719 35.6486 20.486 36.0517 20.5422 37.3126C20.5985 38.5689 20.8 39.4267 21.0907 40.1814C21.3907 40.9595 21.7985 41.6158 22.4547 42.272C23.111 42.9283 23.7719 43.3314 24.5454 43.6361C25.2954 43.9267 26.1532 44.1283 27.4141 44.1845C28.675 44.2408 29.0735 44.2548 32.2844 44.2548C35.4954 44.2548 35.8938 44.2408 37.1547 44.1845C38.411 44.1283 39.2688 43.9267 40.0235 43.6361C40.8016 43.3361 41.4579 42.9283 42.1141 42.272C42.7704 41.6158 43.1735 40.9548 43.4782 40.1814C43.7688 39.4314 43.9704 38.5736 44.0266 37.3126C44.0829 36.0517 44.0969 35.6533 44.0969 32.4423C44.0969 29.2314 44.0829 28.833 44.0266 27.572C43.9704 26.3158 43.7688 25.458 43.4782 24.7033C43.1782 23.9251 42.7704 23.2689 42.1141 22.6126C41.4579 21.9564 40.7969 21.5533 40.0235 21.2486C39.2735 20.958 38.4157 20.7564 37.1547 20.7001C35.8891 20.6486 35.486 20.6345 32.2797 20.6345Z" fill="white"/>
<path d="M32.2797 26.3767C28.9329 26.3767 26.2141 29.0908 26.2141 32.4423C26.2141 35.7939 28.9329 38.508 32.2797 38.508C35.6266 38.508 38.3454 35.7892 38.3454 32.4423C38.3454 29.0955 35.6266 26.3767 32.2797 26.3767ZM32.2797 36.3798C30.1047 36.3798 28.3422 34.6173 28.3422 32.4423C28.3422 30.2673 30.1047 28.5048 32.2797 28.5048C34.4547 28.5048 36.2172 30.2673 36.2172 32.4423C36.2172 34.6173 34.4547 36.3798 32.2797 36.3798Z" fill="white"/>
<path d="M38.5843 27.5534C39.3662 27.5534 40 26.9196 40 26.1378C40 25.356 39.3662 24.7222 38.5843 24.7222C37.8025 24.7222 37.1687 25.356 37.1687 26.1378C37.1687 26.9196 37.8025 27.5534 38.5843 27.5534Z" fill="white"/>
</g>
<defs>
<clipPath id="clip0_446_32">
<rect width="24" height="24" fill="white" transform="translate(20.2798 20.4424)"/>
</clipPath>
</defs>
</svg>
