<svg width="63" height="65" viewBox="0 0 63 65" fill="none" xmlns="http://www.w3.org/2000/svg">
<path d="M49.3079 43.0028C46.3818 47.9702 41.3284 51.9318 35.7456 53.9043C30.1642 55.8763 24.169 55.8248 19.297 52.955C14.4251 50.0852 11.4737 44.8665 10.4926 39.0289C9.51131 33.1897 10.5263 26.8493 13.4524 21.8818C16.3785 16.9144 21.432 12.9529 27.0148 10.9804C32.5961 9.00835 38.5914 9.05982 43.4633 11.9296C48.3352 14.7995 51.2866 20.0181 52.2677 25.8558C53.249 31.6949 52.2341 38.0353 49.3079 43.0028Z" stroke="#FE9A22" stroke-width="2"/>
<g clip-path="url(#clip0_446_26)">
<path fill-rule="evenodd" clip-rule="evenodd" d="M40.8298 41.4424H37.1314V35.1431C37.1314 33.416 36.4751 32.4509 35.1082 32.4509C33.621 32.4509 32.8441 33.4553 32.8441 35.1431V41.4424H29.2798V29.4424H32.8441V31.0588C32.8441 31.0588 33.9158 29.0758 36.4623 29.0758C39.0076 29.0758 40.8298 30.6301 40.8298 33.8447V41.4424ZM25.0277 27.8711C23.8136 27.8711 22.8298 26.8796 22.8298 25.6567C22.8298 24.4339 23.8136 23.4424 25.0277 23.4424C26.2417 23.4424 27.2249 24.4339 27.2249 25.6567C27.2249 26.8796 26.2417 27.8711 25.0277 27.8711ZM23.1873 41.4424H26.9039V29.4424H23.1873V41.4424Z" fill="white"/>
</g>
<defs>
<clipPath id="clip0_446_26">
<rect width="18" height="18" fill="white" transform="translate(22.8298 23.4424)"/>
</clipPath>
</defs>
</svg>
